# Blender 4.3.1
# www.blender.org
mtllib house-1.mtl
o building_steps_narrow_windows_round
v -0.125000 0.106250 0.550000
v -0.125000 0.000000 0.550000
v -0.125000 0.106250 0.450000
v -0.125000 0.000000 0.400000
v -0.125000 0.212500 0.400000
v -0.125000 0.212500 0.450000
v -0.500000 -0.000000 -0.600000
v 0.500000 -0.000000 -0.600000
v -0.500000 0.212500 -0.600000
v 0.500000 0.212500 -0.600000
v -0.500000 0.000000 0.400000
v -0.500000 0.212500 0.400000
v -0.075000 0.000000 0.600000
v -0.075000 0.106250 0.600000
v 0.075000 0.000000 0.600000
v 0.075000 0.106250 0.600000
v 0.125000 0.212500 0.400000
v 0.125000 0.000000 0.400000
v 0.125000 0.212500 0.450000
v 0.125000 0.106250 0.450000
v 0.125000 0.000000 0.550000
v 0.125000 0.106250 0.550000
v 0.500000 0.212500 0.400000
v 0.500000 0.000000 0.400000
v 0.075000 0.106250 0.500000
v -0.075000 0.106250 0.500000
v 0.075000 0.212500 0.500000
v -0.075000 0.212500 0.500000
v -0.125000 0.712500 0.300000
v -0.125000 0.212500 0.300000
v -0.125000 0.712500 0.400000
v -0.500000 0.837500 -0.600000
v -0.500000 0.837500 0.400000
v 0.125000 0.712500 0.400000
v 0.125000 0.712500 0.300000
v 0.500000 0.837500 -0.600000
v 0.500000 0.837500 0.400000
v 0.125000 0.212500 0.300000
v -0.218750 0.290625 0.300000
v -0.218750 0.618750 0.300000
v -0.218750 0.290625 0.400000
v -0.218750 0.618750 0.400000
v -0.406250 0.290625 0.400000
v -0.406250 0.290625 0.300000
v -0.406250 0.618750 0.300000
v -0.406250 0.618750 0.400000
v -0.312500 0.712500 0.400000
v -0.312500 0.712500 0.300000
v -0.378791 0.685041 0.400000
v -0.378791 0.685041 0.300000
v -0.246209 0.685041 0.400000
v -0.246209 0.685041 0.300000
v 0.406250 0.290625 0.400000
v 0.218750 0.290625 0.400000
v 0.406250 0.290625 0.300000
v 0.218750 0.290625 0.300000
v 0.406250 0.618750 0.300000
v 0.406250 0.618750 0.400000
v 0.246209 0.685041 0.300000
v 0.218750 0.618750 0.300000
v 0.246209 0.685041 0.400000
v 0.218750 0.618750 0.400000
v 0.312500 0.712500 0.400000
v 0.312500 0.712500 0.300000
v 0.378791 0.685041 0.400000
v 0.378791 0.685041 0.300000
vn -1.0000 -0.0000 -0.0000
vn -0.0000 -0.0000 -1.0000
vn -0.3827 -0.0000 0.9239
vn 0.3827 -0.0000 0.9239
vn 1.0000 -0.0000 -0.0000
vn -0.0000 -1.0000 -0.0000
vn -0.0000 -0.0000 1.0000
vn -0.0000 1.0000 -0.0000
vn -0.7071 -0.0000 0.7071
vn 0.7071 -0.0000 0.7071
vn 0.7071 -0.7071 -0.0000
vn 0.9239 -0.3827 -0.0000
vn -0.7071 -0.7071 -0.0000
vn -0.9239 -0.3827 -0.0000
vt 0.843750 0.125000
vt 0.843750 0.025000
vt 0.843750 0.225000
vt 0.968750 0.185000
vt 0.968750 0.025000
vt 0.968750 0.225000
vt 0.968750 0.050000
vt 0.968750 0.155000
vt 0.968750 0.176213
vt 0.718750 0.275000
vt 0.718750 0.435000
vt 0.718750 0.300000
vt 0.718750 0.405000
vt 0.718750 0.426213
s 1
usemtl colormap
f 1/1/1 3/1/1 2/2/1
f 2/2/1 3/1/1 4/2/1
f 5/3/1 4/2/1 3/1/1
f 3/1/1 6/3/1 5/3/1
f 7/2/2 9/3/2 8/2/2
f 10/3/2 8/2/2 9/3/2
f 7/2/1 11/2/1 9/3/1
f 12/3/1 9/3/1 11/2/1
f 13/2/3 15/2/4 14/1/3
f 16/1/4 14/1/3 15/2/4
f 17/3/5 19/3/5 18/2/5
f 20/1/5 18/2/5 19/3/5
f 21/2/5 18/2/5 20/1/5
f 22/1/5 21/2/5 20/1/5
f 10/3/5 23/3/5 8/2/5
f 24/2/5 8/2/5 23/3/5
f 21/2/6 15/2/6 18/2/6
f 15/2/6 7/2/6 18/2/6
f 7/2/6 8/2/6 18/2/6
f 24/2/6 18/2/6 8/2/6
f 4/2/6 7/2/6 15/2/6
f 11/2/6 7/2/6 4/2/6
f 13/2/6 4/2/6 15/2/6
f 13/2/6 2/2/6 4/2/6
f 24/2/7 23/3/7 18/2/7
f 17/3/7 18/2/7 23/3/7
f 25/1/4 27/3/4 26/1/3
f 28/3/3 26/1/3 27/3/4
f 4/2/7 5/3/7 11/2/7
f 12/3/7 11/2/7 5/3/7
f 23/3/8 10/3/8 17/3/8
f 9/3/8 17/3/8 10/3/8
f 27/3/8 17/3/8 9/3/8
f 17/3/8 27/3/8 19/3/8
f 28/3/8 27/3/8 9/3/8
f 5/3/8 28/3/8 9/3/8
f 6/3/8 28/3/8 5/3/8
f 12/3/8 5/3/8 9/3/8
f 22/1/8 20/1/8 16/1/8
f 25/1/8 16/1/8 20/1/8
f 14/1/8 16/1/8 25/1/8
f 26/1/8 14/1/8 25/1/8
f 3/1/8 14/1/8 26/1/8
f 1/1/8 14/1/8 3/1/8
f 2/2/9 13/2/3 1/1/9
f 14/1/3 1/1/9 13/2/3
f 22/1/10 16/1/4 21/2/10
f 15/2/4 21/2/10 16/1/4
f 19/3/10 27/3/4 20/1/10
f 25/1/4 20/1/10 27/3/4
f 3/1/9 26/1/3 6/3/9
f 28/3/3 6/3/9 26/1/3
f 29/4/5 31/4/5 30/5/5
f 5/5/5 30/5/5 31/4/5
f 9/5/1 12/5/1 32/6/1
f 33/6/1 32/6/1 12/5/1
f 34/4/6 31/4/6 35/4/6
f 29/4/6 35/4/6 31/4/6
f 36/6/5 37/6/5 10/5/5
f 23/5/5 10/5/5 37/6/5
f 37/6/8 36/6/8 33/6/8
f 32/6/8 33/6/8 36/6/8
f 10/5/2 9/5/2 36/6/2
f 32/6/2 36/6/2 9/5/2
f 38/5/1 17/5/1 35/4/1
f 34/4/1 35/4/1 17/5/1
f 39/7/1 41/7/1 40/8/1
f 42/8/1 40/8/1 41/7/1
f 41/7/8 39/7/8 43/7/8
f 44/7/8 43/7/8 39/7/8
f 45/8/5 46/8/5 44/7/5
f 43/7/5 44/7/5 46/8/5
f 47/4/6 49/9/11 48/4/6
f 50/9/11 48/4/6 49/9/11
f 50/9/11 49/9/11 45/8/12
f 46/8/12 45/8/12 49/9/11
f 51/9/13 47/4/6 52/9/13
f 48/4/6 52/9/13 47/4/6
f 40/8/14 42/8/14 52/9/13
f 51/9/13 52/9/13 42/8/14
f 53/7/8 55/7/8 54/7/8
f 56/7/8 54/7/8 55/7/8
f 55/7/1 53/7/1 57/8/1
f 58/8/1 57/8/1 53/7/1
f 59/9/11 61/9/11 60/8/12
f 62/8/12 60/8/12 61/9/11
f 60/8/5 62/8/5 56/7/5
f 54/7/5 56/7/5 62/8/5
f 63/4/6 61/9/11 64/4/6
f 59/9/11 64/4/6 61/9/11
f 65/9/13 63/4/6 66/9/13
f 64/4/6 66/9/13 63/4/6
f 57/8/14 58/8/14 66/9/13
f 65/9/13 66/9/13 58/8/14
f 12/5/7 5/5/7 41/7/7
f 31/4/7 41/7/7 5/5/7
f 41/7/7 43/7/7 12/5/7
f 42/8/7 41/7/7 31/4/7
f 33/6/7 12/5/7 43/7/7
f 51/9/7 42/8/7 31/4/7
f 46/8/7 33/6/7 43/7/7
f 49/9/7 33/6/7 46/8/7
f 47/4/7 33/6/7 49/9/7
f 47/4/7 51/9/7 31/4/7
f 37/6/7 33/6/7 47/4/7
f 47/4/7 31/4/7 37/6/7
f 31/4/7 34/4/7 37/6/7
f 34/4/7 63/4/7 37/6/7
f 63/4/7 34/4/7 61/9/7
f 61/9/7 34/4/7 62/8/7
f 62/8/7 34/4/7 54/7/7
f 17/5/7 54/7/7 34/4/7
f 63/4/7 65/9/7 37/6/7
f 65/9/7 58/8/7 37/6/7
f 54/7/7 17/5/7 53/7/7
f 58/8/7 53/7/7 37/6/7
f 17/5/7 23/5/7 53/7/7
f 37/6/7 53/7/7 23/5/7
f 38/10/7 35/11/7 30/10/7
f 29/11/7 30/10/7 35/11/7
f 39/12/7 40/13/7 44/12/7
f 45/13/7 44/12/7 40/13/7
f 52/14/7 45/13/7 40/13/7
f 50/14/7 45/13/7 52/14/7
f 48/11/7 50/14/7 52/14/7
f 56/12/7 55/12/7 60/13/7
f 57/13/7 60/13/7 55/12/7
f 66/14/7 60/13/7 57/13/7
f 59/14/7 60/13/7 66/14/7
f 64/11/7 59/14/7 66/14/7
o roof_flat_awning_a
v -0.500000 0.837000 -0.600013
v -0.500000 1.049500 -0.600013
v -0.500000 0.837000 0.399987
v -0.500000 1.049500 0.399987
v 0.500000 0.837000 0.399987
v 0.500000 0.837000 -0.600013
v 0.500000 1.049500 0.399987
v 0.500000 1.049500 -0.600013
v -0.500000 0.837000 0.482487
v -0.500000 0.837000 0.399987
v -0.500000 0.864500 0.509987
v -0.500000 1.049500 0.399987
v -0.500000 1.022000 0.509987
v -0.500000 1.049500 0.482487
v 0.500000 1.049500 0.482487
v 0.500000 1.049500 0.399987
v 0.500000 0.837000 0.482487
v 0.500000 0.837000 0.399987
v 0.500000 0.864500 0.509987
v 0.500000 1.022000 0.509987
vn -1.0000 -0.0000 -0.0000
vn -0.0000 -1.0000 -0.0000
vn -0.0000 1.0000 -0.0000
vn 1.0000 -0.0000 -0.0000
vn -0.0000 -0.0000 -1.0000
vn -0.0000 0.3827 0.9239
vn -0.0000 -0.3827 0.9239
vn -0.0000 0.7071 0.7071
vn -0.0000 -0.7071 0.7071
vt 0.843750 0.025000
vt 0.843750 0.225000
vt 0.093750 0.275000
vt 0.093750 0.300882
vt 0.093750 0.475000
vt 0.093750 0.449118
s 1
usemtl colormap.001
f 67/15/15 69/15/15 68/16/15
f 70/16/15 68/16/15 69/15/15
f 69/15/16 67/15/16 71/15/16
f 72/15/16 71/15/16 67/15/16
f 70/16/17 73/16/17 68/16/17
f 74/16/17 68/16/17 73/16/17
f 72/15/18 74/16/18 71/15/18
f 73/16/18 71/15/18 74/16/18
f 72/15/19 67/15/19 74/16/19
f 68/16/19 74/16/19 67/15/19
f 75/17/15 77/18/15 76/17/15
f 78/19/15 76/17/15 77/18/15
f 79/20/15 78/19/15 77/18/15
f 80/19/15 78/19/15 79/20/15
f 80/19/17 81/19/17 78/19/17
f 82/19/17 78/19/17 81/19/17
f 83/17/16 75/17/16 84/17/16
f 76/17/16 84/17/16 75/17/16
f 84/17/18 82/19/18 83/17/18
f 85/18/18 83/17/18 82/19/18
f 86/20/18 85/18/18 82/19/18
f 81/19/18 86/20/18 82/19/18
f 86/20/20 79/20/20 85/18/21
f 77/18/21 85/18/21 79/20/20
f 79/20/20 86/20/20 80/19/22
f 81/19/22 80/19/22 86/20/20
f 85/18/21 77/18/21 83/17/23
f 75/17/23 83/17/23 77/18/21
